PathFileType	4	(X/Y/Z)	RBDS016\RBDS016runT35.trc
DataRate	CameraRate	NumFrames	NumMarkers	Units	OrigDataRate	OrigDataStartFrame	OrigNumFrames
150.000000	150.000000	6	33	mm	150.000000	2812	4500
Frame#	Time	L.ASIS			L.Heel.Bottom			L.Heel.Lateral			L.Heel.Top			L.Iliac.Crest			L.MT1			L.MT5			L.PSIS			L.Shank.Bottom.Lateral			L.Shank.Bottom.Medial			L.Shank.Top.Lateral			L.Shank.Top.Medial			L.Thigh.Bottom.Lateral			L.Thigh.Bottom.Medial			L.Thigh.Top.Lateral			L.Thigh.Top.Medial			R.ASIS			R.ASY			R.Heel.Bottom			R.Heel.Lateral			R.Heel.Top			R.Iliac.Crest			R.MT1			R.MT5			R.PSIS			R.Shank.Bottom.Lateral			R.Shank.Bottom.Medial			R.Shank.Top.Lateral			R.Shank.Top.Medial			R.Thigh.Bottom.Lateral			R.Thigh.Bottom.Medial			R.Thigh.Top.Lateral			R.Thigh.Top.Medial			
		X1	Y1	Z1	X2	Y2	Z2	X3	Y3	Z3	X4	Y4	Z4	X5	Y5	Z5	X6	Y6	Z6	X7	Y7	Z7	X8	Y8	Z8	X9	Y9	Z9	X10	Y10	Z10	X11	Y11	Z11	X12	Y12	Z12	X13	Y13	Z13	X14	Y14	Z14	X15	Y15	Z15	X16	Y16	Z16	X17	Y17	Z17	X18	Y18	Z18	X19	Y19	Z19	X20	Y20	Z20	X21	Y21	Z21	X22	Y22	Z22	X23	Y23	Z23	X24	Y24	Z24	X25	Y25	Z25	X26	Y26	Z26	X27	Y27	Z27	X28	Y28	Z28	X29	Y29	Z29	X30	Y30	Z30	X31	Y31	Z31	X32	Y32	Z32	X33	Y33	Z33	

2813	18.74666666666667	2527.814957080921	886.9846345413119	870.3567370153072	1922.014347194746	497.5535942778014	954.6642393758133	1932.144093049572	484.5568900637846	903.5004669850898	1965.829075770232	483.4338541211364	943.1971954838215	2459.181361141381	967.8569022488177	816.8340735105854	1916.173328689228	277.68701182935	919.5069124789862	1896.68890351439	343.9412495877658	836.0955463085448	2343.088428814114	932.4823008304764	933.3478940699055	2042.541022754021	457.8124002180734	868.8814476701941	2047.884874331594	469.5227985080546	923.0511482988715	2120.084429251218	475.336871919301	858.4324859486226	2126.466867349969	485.9767590646423	910.6338583188951	2362.378141849166	522.8368097047006	817.383080522595	2310.32182151855	538.2535021882438	866.3883164681178	2378.950364761361	630.2338517890357	801.5117580284007	2327.840564475024	645.2038130075424	847.5157846632976	2518.041272814888	913.5783424355016	1094.183938774856	2690.332619972656	90.03119786785874	1032.153501638011	2519.233895954791	21.72570166300162	983.8583793280993	2536.36444223532	42.96138577485251	1030.090429330503	2526.912368302013	71.81194627160107	986.5612710986353	2440.481930973318	970.7554358570151	1143.692847825191	2730.197916441115	67.53639552807741	993.4115056124575	2681.765345043993	40.62087923317996	1091.760758637936	2334.927113568162	931.6820938687134	1033.440247332395	2567.925533232885	144.4003482059729	1067.001073782998	2531.041598979102	153.1375253696866	1032.339844225971	2557.880632205558	225.0191195649734	1093.203829482991	2519.649113256176	229.6827449175242	1056.328068420584	2529.580986396628	555.3538317168213	1139.333829062432	2475.161342169571	534.6344631462382	1096.675021053776	2476.139141722291	649.9276652381311	1160.830663970379	2425.599810628719	630.1679404242402	1120.197373774096	
2814	18.75333333333333	2527.095139777602	879.9450418602539	870.9794969228766	1936.01558481683	501.0920254538173	954.0070741383619	1946.408891363599	488.2277533362731	902.7639078611127	1979.46411001094	485.9765858599417	943.0238612009142	2459.248264931671	958.4710274954236	816.2222519067697	1925.790453327904	281.4261194120737	917.3235956500562	1908.73268905227	348.6516742820942	834.1408104147739	2341.416985918506	924.1079122072674	931.6440346666266	2056.41036344513	458.253105162473	868.2506989561947	2062.120015203491	469.8774452704784	922.3988216478754	2134.524035217636	473.1778673939939	857.8273443051639	2141.269322819789	483.5965234962644	910.0341548880436	2370.856010720477	514.6971509505499	816.6574669550276	2318.066016258669	528.4361243698252	865.4159672911812	2384.498885780513	622.6327759795574	801.3658990632097	2332.910724404183	635.9419791537307	847.3592203097709	2516.707347521908	909.1697843835806	1095.951456514063	2671.950473929459	83.9677841389901	1029.327865179274	2496.949129041372	22.78909627288615	983.0115449697943	2515.303420813389	44.40940118817451	1028.57995977924	2507.577467653579	72.72076776927894	984.2550140126634	2437.531093963112	964.1816558116419	1144.232084368859	2711.197896058779	59.05388370059227	991.3523389127067	2660.845552490375	36.90923688886369	1090.596742600054	2332.75438411186	924.7562259939637	1031.555096991788	2553.974405595318	142.1626942493782	1064.671816905343	2516.923398397539	152.7900580775926	1030.642539642796	2547.983265882328	223.0030475464004	1091.458926384525	2509.459987752413	229.6998577180447	1055.230524887685	2529.240668574563	551.2619401749007	1139.104583059565	2474.873430823934	530.5539681534334	1096.309689129423	2475.325673436143	645.450628568401	1161.131765447337	2424.787380438624	625.6946391008009	1120.403571596997	
2815	18.76	2526.137812624549	873.0570964631596	871.7493167970783	1950.264401012499	503.373627878992	952.982237234262	1961.113288105061	490.5776539326344	901.755108115751	1993.461742015642	487.4769127392275	942.7011130414935	2459.17739405871	949.3511177509491	815.8455609893152	1936.961259259143	283.8631434834139	915.3829517097463	1922.215267806469	351.684720751386	832.2137242249195	2339.42049957205	916.5129394669241	929.9026523701896	2070.920470666883	457.8738516075882	867.5870562157176	2076.901442968201	469.5439515223098	921.6936727759972	2149.487793217836	470.5114466440996	857.2153643007651	2156.492232517068	480.8378104044697	909.4112074749191	2379.875534060483	507.2099824641766	815.9274700962408	2326.321858899268	519.1672231435184	864.3595681513677	2390.415703128996	615.5965395478643	801.2055025387243	2338.335369759371	627.1382283005122	847.1376601974711	2514.970984782456	904.749606880431	1098.023187070727	2652.475298481229	79.3641453113635	1026.910473980921	2474.418227269576	24.12954801914728	982.3191264628061	2493.779821377509	46.16207428103861	1027.299571546533	2487.507461952612	73.86273028315458	982.2539334368571	2434.264269533229	957.7034886051213	1144.810360529945	2691.165679108293	52.47581184144817	989.786829871667	2639.214630768851	34.60410962199504	1089.760108800914	2330.449939614527	918.5172357826967	1029.545134958239	2539.112218073821	140.864079546875	1062.611147556299	2502.068689328101	153.3869945496523	1029.122404079495	2537.273164360612	221.7379411740949	1089.870972219414	2498.657864104897	230.5009314956039	1054.178018752891	2528.101080537102	547.2436621721467	1138.978141624588	2473.93494822991	526.7415911911181	1095.765543705125	2473.818350593822	641.1399680695419	1161.429910781055	2423.415171312573	621.5691908846862	1120.360576321666	
2816	18.76666666666667	2524.957187084533	866.5657504431606	872.6400037935475	1964.588577254415	504.4117106052252	951.5382724446724	1976.072667336597	491.599435666427	900.4389250635189	2007.678530093636	487.9653350003248	942.1629260067004	2458.817945462384	940.8852710031589	815.7437368284513	1949.595638853441	284.939877693063	913.7579129787822	1936.971607588022	352.9581058347905	830.3633220775416	2337.168452475486	909.9187990176107	928.2612807544119	2085.938265305062	456.7391301657236	866.8835995361381	2092.087700330247	468.5755845798011	920.9354542242074	2164.861893142117	467.463080083744	856.6117369425162	2172.014210236126	477.8248058120978	908.7820171867845	2389.487020022033	500.5434074564742	815.2470388500973	2335.166896163267	510.6070600145097	863.2841428597442	2396.716466802096	609.2707929389849	801.0473839532236	2344.144153823956	618.9360899956453	846.8609361577365	2512.885420827918	900.3934410320722	1100.332646089206	2632.027192438496	76.14649989673497	1024.977447220697	2451.751412878695	25.59626307436955	981.7991163182888	2471.889609300612	48.03860648606798	1026.291969052864	2466.770695682706	75.11523175765369	980.6331869793952	2430.769076874113	951.4975906033845	1145.426475248953	2670.224554626469	47.76357342285931	988.7315967303208	2617.016944034733	33.50335661653155	1089.241774567688	2328.079894844952	913.1312744582813	1027.55576985645	2523.313878741208	140.386573060853	1060.902005945265	2486.4600401273	154.7628975865762	1027.845587180873	2525.643615122958	221.1089170772133	1088.497149233332	2487.141577180618	231.9094683611081	1053.206653309386	2526.025052381963	543.3406758943794	1138.919361951507	2472.179702186749	523.2443009215688	1095.052254342082	2471.560411599474	637.0863345723485	1161.670629596101	2421.399193962853	617.8871520890461	1120.051806028245	
2817	18.77333333333333	2523.580746570764	860.721072305995	873.6101432192276	1978.831346395032	504.2058455341677	949.6497713257144	1991.108559152118	491.2817102447432	898.7980384294963	2021.975375088404	487.4612705548257	941.3464771158565	2458.04808708571	933.4444333961699	815.9349765722144	1963.593127882149	284.6136871754441	912.5085900811429	1952.818094458709	352.4192701573518	828.6419156949725	2334.75386924883	904.4883313227607	926.8615919081325	2101.32331727807	454.9132180374079	866.1334153800427	2107.528756501138	467.0186987212757	920.1239916077884	2180.523280516329	464.1547369711191	856.0290003956015	2187.705928536339	474.6709061576341	908.1615280027813	2399.710880564582	494.8544486370856	814.6668874781637	2344.652843180611	502.903906113665	862.2557609636592	2403.389095984136	603.789717403072	800.9097792341378	2350.342218907917	611.4658920521476	846.5426836298629	2510.550558078853	896.1967271777294	1102.780859052062	2610.740656372631	74.13679570546202	1023.561683080052	2429.000963388341	27.05370074024	981.458361745809	2449.691567535322	49.874364922108	1025.578296797026	2445.42513491201	76.36958284229119	979.4341559808453	2427.165605496633	945.7552832301226	1146.072450820766	2648.504928714858	44.72970360319508	988.160716046488	2594.3747099599	33.32673834576843	1089.011533471631	2325.722320049876	908.7212993505102	1025.744029757781	2506.571703336902	140.5519484565104	1059.594109116413	2470.080772421573	156.6971427877134	1026.857474448704	2513.001433619122	220.9525856071899	1087.376200533931	2474.804226167237	233.7048612428193	1052.349682732933	2522.882438412132	539.5840023901335	1138.895515258354	2469.436976549443	520.0994709985954	1094.197736397559	2468.514105017787	633.36895574782	1161.814453346314	2418.665296865115	614.7338747905588	1119.488719783818	
2818	18.78	2522.047800471747	855.7594009761443	874.6041009718188	1992.855521444102	502.7382265172981	947.3228290505324	2006.055717862527	489.6070297818535	896.8368252292034	2036.219577116682	485.9692408439009	940.200992544078	2456.79115824534	927.3438650708398	816.4099463489736	1978.847809624095	282.8600512367423	911.6774074170429	1969.56542370459	350.0491910598886	827.1009999099454	2332.283326924567	900.3126461995682	925.8343675199606	2116.931128887034	452.4543193612461	865.3310834964628	2123.070064217904	464.9101299461793	919.2594327232117	2196.340284172511	460.6967411815991	855.4753121833292	2203.431023320667	471.4727169604673	907.5603313359323	2410.531342647954	490.2829448855235	814.2275557181584	2354.795596363241	496.1899934168812	861.331254292183	2410.394655347565	599.2712723039009	800.8096191684291	2356.908782225084	604.8411293043831	846.1966572239805	2508.102884975478	892.2686006335201	1105.244501905099	2588.757597258016	73.09137482981166	1022.650667286188	2406.176912649101	28.39522021417727	981.2901000194504	2427.218919719709	51.53919807994301	1025.155168841943	2423.525656056047	77.54134854474833	978.6602184431711	2423.599487574451	940.6644240738437	1146.737633376944	2626.139934991077	43.08449942896964	988.0116648404921	2571.389253425699	33.76553580837718	1089.021681330852	2323.460508400889	905.3582697463327	1024.262635358492	2488.902530932481	141.155363388669	1058.697760137443	2452.923960071892	158.9505814187471	1026.175485220924	2499.28122777623	221.088565528979	1086.522273055048	2461.549763977845	235.6592997966647	1051.630951630002	2518.55957830715	536.002180118757	1138.879605410649	2465.544880474637	517.3428330047817	1093.245881858064	2464.661945409879	630.0575834213597	1161.83997938828	2415.154287296543	612.1862134768054	1118.709231937225	
